<svg width="1092" height="507" viewBox="0 0 1092 507" fill="none" xmlns="http://www.w3.org/2000/svg">
<path d="M1001.75 327.5C1018.62 338.875 1043.5 337.25 1055 346.5C1066.5 355.75 1064.62 375.75 1058.25 392.625C1051.88 409.5 1041.12 423.25 1030.5 438.75C1019.75 454.375 1009.12 471.75 995.75 472.25C982.375 472.625 966.25 456.125 950.125 447.625C934.125 439.125 918.125 438.625 906.625 431.125C895.125 423.625 888.125 409 891.125 396C894.125 383.125 907.25 371.875 912.875 356.25C918.375 340.5 916.375 320.375 924.125 304.875C932 289.375 949.5 278.5 962.75 285.25C975.875 291.875 984.75 316.125 1001.75 327.5Z" fill="#D65A41"/>
<path d="M712.997 48.7475C743.377 53.8684 785.634 51.4103 794.314 65.9538C802.765 80.702 777.411 112.247 763.477 136.623C749.544 160.998 746.803 178 738.352 192.543C729.9 207.291 715.51 219.377 699.064 241.499C682.618 263.622 663.659 295.986 642.645 299.673C621.402 303.155 598.104 278.165 580.516 256.452C562.928 234.74 551.278 216.509 545.797 198.279C540.086 180.048 540.543 162.022 529.351 138.056C518.387 114.09 495.773 84.3891 496.002 57.9651C496.002 31.3363 519.072 7.78003 547.852 1.63491C576.404 -4.30536 610.667 6.96068 637.163 19.0461C663.659 31.1315 682.39 43.6265 712.997 48.7475Z" fill="#F7B13C"/>
<path d="M209.25 238.3C222.75 251.2 226.8 275.2 229.35 295C231.9 314.8 232.8 330.4 234.15 346.75C235.5 363.1 237.3 380.35 229.8 391.45C222.3 402.55 205.35 407.65 190.5 417.7C175.65 427.9 162.75 443.05 146.55 449.05C130.2 455.2 110.25 452.2 91.05 444.55C71.7 437.05 52.95 425.05 39 407.8C25.2 390.55 16.5 368.35 21.15 348.7C25.8 329.05 44.1 312.25 58.95 296.95C73.95 281.8 85.65 268.15 100.2 255.85C114.75 243.55 132.45 232.6 152.7 228.1C172.8 223.45 195.75 225.4 209.25 238.3Z" fill="#98D1D2"/>
</svg>
