<svg width="16" height="16" viewBox="0 0 16 16" fill="none" xmlns="http://www.w3.org/2000/svg">
<path d="M15.6455 5.38928C16.6798 8.51205 15.3842 12.448 12.6296 14.454C9.8751 16.4599 5.67253 16.525 3.04865 14.5841C0.413878 12.6432 -0.653095 8.69638 0.40299 5.54108C1.46996 2.39663 4.65999 0.0328697 7.94801 0.000340931C11.2251 -0.0321879 14.6111 2.26651 15.6455 5.38928Z" fill="black"/>
<path d="M15.6455 5.38928C16.6798 8.51205 15.3842 12.448 12.6296 14.454C9.8751 16.4599 5.67253 16.525 3.04865 14.5841C0.413878 12.6432 -0.653095 8.69638 0.40299 5.54108C1.46996 2.39663 4.65999 0.0328697 7.94801 0.000340931C11.2251 -0.0321879 14.6111 2.26651 15.6455 5.38928Z" stroke="black"/>
</svg>
