<svg width="958" height="17" viewBox="0 0 958 17" fill="none" xmlns="http://www.w3.org/2000/svg">
<path d="M718.645 6.38928C719.68 9.51205 718.384 13.448 715.63 15.454C712.875 17.4599 708.673 17.525 706.049 15.5841C703.414 13.6432 702.347 9.69638 703.403 6.54108C704.47 3.39663 707.66 1.03287 710.948 1.00034C714.225 0.967812 717.611 3.26651 718.645 6.38928Z" fill="black"/>
<path d="M718.645 6.38928C719.68 9.51205 718.384 13.448 715.63 15.454C712.875 17.4599 708.673 17.525 706.049 15.5841C703.414 13.6432 702.347 9.69638 703.403 6.54108C704.47 3.39663 707.66 1.03287 710.948 1.00034C714.225 0.967812 717.611 3.26651 718.645 6.38928Z" stroke="black"/>
<path d="M489.645 6.38928C490.68 9.51205 489.384 13.448 486.63 15.454C483.875 17.4599 479.673 17.525 477.049 15.5841C474.414 13.6432 473.347 9.69638 474.403 6.54108C475.47 3.39663 478.66 1.03287 481.948 1.00034C485.225 0.967812 488.611 3.26651 489.645 6.38928Z" fill="black"/>
<path d="M489.645 6.38928C490.68 9.51205 489.384 13.448 486.63 15.454C483.875 17.4599 479.673 17.525 477.049 15.5841C474.414 13.6432 473.347 9.69638 474.403 6.54108C475.47 3.39663 478.66 1.03287 481.948 1.00034C485.225 0.967812 488.611 3.26651 489.645 6.38928Z" stroke="black"/>
<path d="M957.645 6.38928C958.68 9.51205 957.384 13.448 954.63 15.454C951.875 17.4599 947.673 17.525 945.049 15.5841C942.414 13.6432 941.347 9.69638 942.403 6.54108C943.47 3.39663 946.66 1.03287 949.948 1.00034C953.225 0.967812 956.611 3.26651 957.645 6.38928Z" fill="black"/>
<path d="M957.645 6.38928C958.68 9.51205 957.384 13.448 954.63 15.454C951.875 17.4599 947.673 17.525 945.049 15.5841C942.414 13.6432 941.347 9.69638 942.403 6.54108C943.47 3.39663 946.66 1.03287 949.948 1.00034C953.225 0.967812 956.611 3.26651 957.645 6.38928Z" stroke="black"/>
<path d="M252.645 5.38928C253.68 8.51205 252.384 12.448 249.63 14.454C246.875 16.4599 242.673 16.525 240.049 14.5841C237.414 12.6432 236.347 8.69638 237.403 5.54108C238.47 2.39663 241.66 0.0328697 244.948 0.000340931C248.225 -0.0321879 251.611 2.26651 252.645 5.38928Z" fill="black"/>
<path d="M252.645 5.38928C253.68 8.51205 252.384 12.448 249.63 14.454C246.875 16.4599 242.673 16.525 240.049 14.5841C237.414 12.6432 236.347 8.69638 237.403 5.54108C238.47 2.39663 241.66 0.0328697 244.948 0.000340931C248.225 -0.0321879 251.611 2.26651 252.645 5.38928Z" stroke="black"/>
<path d="M15.6455 6.38928C16.6798 9.51205 15.3842 13.448 12.6296 15.454C9.8751 17.4599 5.67253 17.525 3.04865 15.5841C0.413878 13.6432 -0.653095 9.69638 0.40299 6.54108C1.46996 3.39663 4.65999 1.03287 7.94801 1.00034C11.2251 0.967812 14.6111 3.26651 15.6455 6.38928Z" fill="black"/>
<path d="M15.6455 6.38928C16.6798 9.51205 15.3842 13.448 12.6296 15.454C9.8751 17.4599 5.67253 17.525 3.04865 15.5841C0.413878 13.6432 -0.653095 9.69638 0.40299 6.54108C1.46996 3.39663 4.65999 1.03287 7.94801 1.00034C11.2251 0.967812 14.6111 3.26651 15.6455 6.38928Z" stroke="black"/>
<line x1="8" y1="8.5" x2="245" y2="8.5" stroke="black"/>
<line x1="245" y1="8.5" x2="482" y2="8.5" stroke="black"/>
<line x1="482" y1="8.5" x2="719" y2="8.5" stroke="black"/>
<line x1="711" y1="8.5" x2="948" y2="8.5" stroke="black"/>
</svg>
