<svg width="253" height="17" viewBox="0 0 253 17" fill="none" xmlns="http://www.w3.org/2000/svg">
<path d="M252.645 5.38928C253.68 8.51205 252.384 12.448 249.63 14.454C246.875 16.4599 242.673 16.525 240.049 14.5841C237.414 12.6432 236.347 8.69638 237.403 5.54108C238.47 2.39663 241.66 0.0328697 244.948 0.000340931C248.225 -0.0321879 251.611 2.26651 252.645 5.38928Z" fill="black"/>
<path d="M252.645 5.38928C253.68 8.51205 252.384 12.448 249.63 14.454C246.875 16.4599 242.673 16.525 240.049 14.5841C237.414 12.6432 236.347 8.69638 237.403 5.54108C238.47 2.39663 241.66 0.0328697 244.948 0.000340931C248.225 -0.0321879 251.611 2.26651 252.645 5.38928Z" stroke="black"/>
<path d="M15.6455 6.38928C16.6798 9.51205 15.3842 13.448 12.6296 15.454C9.8751 17.4599 5.67253 17.525 3.04865 15.5841C0.413878 13.6432 -0.653095 9.69638 0.40299 6.54108C1.46996 3.39663 4.65999 1.03287 7.94801 1.00034C11.2251 0.967812 14.6111 3.26651 15.6455 6.38928Z" fill="black"/>
<path d="M15.6455 6.38928C16.6798 9.51205 15.3842 13.448 12.6296 15.454C9.8751 17.4599 5.67253 17.525 3.04865 15.5841C0.413878 13.6432 -0.653095 9.69638 0.40299 6.54108C1.46996 3.39663 4.65999 1.03287 7.94801 1.00034C11.2251 0.967812 14.6111 3.26651 15.6455 6.38928Z" stroke="black"/>
<line x1="8" y1="8.5" x2="245" y2="8.5" stroke="black"/>
</svg>
