<svg width="180" height="44" viewBox="0 0 180 44" fill="none" xmlns="http://www.w3.org/2000/svg">
<rect width="180" height="44" rx="15" fill="#F7B13C"/>
<path d="M34.705 20.605C34.299 19.751 33.711 19.093 32.941 18.631C32.171 18.155 31.275 17.917 30.253 17.917C29.231 17.917 28.307 18.155 27.481 18.631C26.669 19.093 26.025 19.765 25.549 20.647C25.087 21.515 24.856 22.523 24.856 23.671C24.856 24.819 25.087 25.827 25.549 26.695C26.025 27.563 26.669 28.235 27.481 28.711C28.307 29.173 29.231 29.404 30.253 29.404C31.681 29.404 32.857 28.977 33.781 28.123C34.705 27.269 35.244 26.114 35.398 24.658H29.56V23.104H37.435V24.574C37.323 25.778 36.945 26.884 36.301 27.892C35.657 28.886 34.81 29.677 33.76 30.265C32.71 30.839 31.541 31.126 30.253 31.126C28.895 31.126 27.656 30.811 26.536 30.181C25.416 29.537 24.527 28.648 23.869 27.514C23.225 26.38 22.903 25.099 22.903 23.671C22.903 22.243 23.225 20.962 23.869 19.828C24.527 18.68 25.416 17.791 26.536 17.161C27.656 16.517 28.895 16.195 30.253 16.195C31.807 16.195 33.179 16.58 34.369 17.35C35.573 18.12 36.448 19.205 36.994 20.605H34.705ZM50.4617 24.805C50.4617 25.169 50.4407 25.554 50.3987 25.96H41.2007C41.2707 27.094 41.6557 27.983 42.3557 28.627C43.0697 29.257 43.9307 29.572 44.9387 29.572C45.7647 29.572 46.4507 29.383 46.9967 29.005C47.5567 28.613 47.9487 28.095 48.1727 27.451H50.2307C49.9227 28.557 49.3067 29.46 48.3827 30.16C47.4587 30.846 46.3107 31.189 44.9387 31.189C43.8467 31.189 42.8667 30.944 41.9987 30.454C41.1447 29.964 40.4727 29.271 39.9827 28.375C39.4927 27.465 39.2477 26.415 39.2477 25.225C39.2477 24.035 39.4857 22.992 39.9617 22.096C40.4377 21.2 41.1027 20.514 41.9567 20.038C42.8247 19.548 43.8187 19.303 44.9387 19.303C46.0307 19.303 46.9967 19.541 47.8367 20.017C48.6767 20.493 49.3207 21.151 49.7687 21.991C50.2307 22.817 50.4617 23.755 50.4617 24.805ZM48.4877 24.406C48.4877 23.678 48.3267 23.055 48.0047 22.537C47.6827 22.005 47.2417 21.606 46.6817 21.34C46.1357 21.06 45.5267 20.92 44.8547 20.92C43.8887 20.92 43.0627 21.228 42.3767 21.844C41.7047 22.46 41.3197 23.314 41.2217 24.406H48.4877ZM55.3152 21.067V27.85C55.3152 28.41 55.4342 28.809 55.6722 29.047C55.9102 29.271 56.3232 29.383 56.9112 29.383H58.3182V31H56.5962C55.5322 31 54.7342 30.755 54.2022 30.265C53.6702 29.775 53.4042 28.97 53.4042 27.85V21.067H51.9132V19.492H53.4042V16.594H55.3152V19.492H58.3182V21.067H55.3152ZM70.8732 31.147C69.9072 31.147 69.0392 30.979 68.2692 30.643C67.5132 30.293 66.9182 29.817 66.4842 29.215C66.0502 28.599 65.8262 27.892 65.8122 27.094H67.8492C67.9192 27.78 68.1992 28.361 68.6892 28.837C69.1932 29.299 69.9212 29.53 70.8732 29.53C71.7832 29.53 72.4972 29.306 73.0152 28.858C73.5472 28.396 73.8132 27.808 73.8132 27.094C73.8132 26.534 73.6592 26.079 73.3512 25.729C73.0432 25.379 72.6582 25.113 72.1962 24.931C71.7342 24.749 71.1112 24.553 70.3272 24.343C69.3612 24.091 68.5842 23.839 67.9962 23.587C67.4222 23.335 66.9252 22.943 66.5052 22.411C66.0992 21.865 65.8962 21.137 65.8962 20.227C65.8962 19.429 66.0992 18.722 66.5052 18.106C66.9112 17.49 67.4782 17.014 68.2062 16.678C68.9482 16.342 69.7952 16.174 70.7472 16.174C72.1192 16.174 73.2392 16.517 74.1072 17.203C74.9892 17.889 75.4862 18.799 75.5982 19.933H73.4982C73.4282 19.373 73.1342 18.883 72.6162 18.463C72.0982 18.029 71.4122 17.812 70.5582 17.812C69.7602 17.812 69.1092 18.022 68.6052 18.442C68.1012 18.848 67.8492 19.422 67.8492 20.164C67.8492 20.696 67.9962 21.13 68.2902 21.466C68.5982 21.802 68.9692 22.061 69.4032 22.243C69.8512 22.411 70.4742 22.607 71.2722 22.831C72.2382 23.097 73.0152 23.363 73.6032 23.629C74.1912 23.881 74.6952 24.28 75.1152 24.826C75.5352 25.358 75.7452 26.086 75.7452 27.01C75.7452 27.724 75.5562 28.396 75.1782 29.026C74.8002 29.656 74.2402 30.167 73.4982 30.559C72.7562 30.951 71.8812 31.147 70.8732 31.147ZM80.8884 21.067V27.85C80.8884 28.41 81.0074 28.809 81.2454 29.047C81.4834 29.271 81.8964 29.383 82.4844 29.383H83.8914V31H82.1694C81.1054 31 80.3074 30.755 79.7754 30.265C79.2434 29.775 78.9774 28.97 78.9774 27.85V21.067H77.4864V19.492H78.9774V16.594H80.8884V19.492H83.8914V21.067H80.8884ZM85.4928 25.204C85.4928 24.028 85.7308 22.999 86.2068 22.117C86.6828 21.221 87.3338 20.528 88.1598 20.038C88.9998 19.548 89.9308 19.303 90.9528 19.303C91.9608 19.303 92.8358 19.52 93.5778 19.954C94.3198 20.388 94.8728 20.934 95.2368 21.592V19.492H97.1688V31H95.2368V28.858C94.8588 29.53 94.2918 30.09 93.5358 30.538C92.7938 30.972 91.9258 31.189 90.9318 31.189C89.9098 31.189 88.9858 30.937 88.1598 30.433C87.3338 29.929 86.6828 29.222 86.2068 28.312C85.7308 27.402 85.4928 26.366 85.4928 25.204ZM95.2368 25.225C95.2368 24.357 95.0618 23.601 94.7118 22.957C94.3618 22.313 93.8858 21.823 93.2838 21.487C92.6958 21.137 92.0448 20.962 91.3308 20.962C90.6168 20.962 89.9658 21.13 89.3778 21.466C88.7898 21.802 88.3208 22.292 87.9708 22.936C87.6208 23.58 87.4458 24.336 87.4458 25.204C87.4458 26.086 87.6208 26.856 87.9708 27.514C88.3208 28.158 88.7898 28.655 89.3778 29.005C89.9658 29.341 90.6168 29.509 91.3308 29.509C92.0448 29.509 92.6958 29.341 93.2838 29.005C93.8858 28.655 94.3618 28.158 94.7118 27.514C95.0618 26.856 95.2368 26.093 95.2368 25.225ZM102.309 21.361C102.645 20.703 103.121 20.192 103.737 19.828C104.367 19.464 105.13 19.282 106.026 19.282V21.256H105.522C103.38 21.256 102.309 22.418 102.309 24.742V31H100.398V19.492H102.309V21.361ZM110.563 21.067V27.85C110.563 28.41 110.682 28.809 110.92 29.047C111.158 29.271 111.571 29.383 112.159 29.383H113.566V31H111.844C110.78 31 109.982 30.755 109.45 30.265C108.918 29.775 108.652 28.97 108.652 27.85V21.067H107.161V19.492H108.652V16.594H110.563V19.492H113.566V21.067H110.563ZM126.382 24.805C126.382 25.169 126.361 25.554 126.319 25.96H117.121C117.191 27.094 117.576 27.983 118.276 28.627C118.99 29.257 119.851 29.572 120.859 29.572C121.685 29.572 122.371 29.383 122.917 29.005C123.477 28.613 123.869 28.095 124.093 27.451H126.151C125.843 28.557 125.227 29.46 124.303 30.16C123.379 30.846 122.231 31.189 120.859 31.189C119.767 31.189 118.787 30.944 117.919 30.454C117.065 29.964 116.393 29.271 115.903 28.375C115.413 27.465 115.168 26.415 115.168 25.225C115.168 24.035 115.406 22.992 115.882 22.096C116.358 21.2 117.023 20.514 117.877 20.038C118.745 19.548 119.739 19.303 120.859 19.303C121.951 19.303 122.917 19.541 123.757 20.017C124.597 20.493 125.241 21.151 125.689 21.991C126.151 22.817 126.382 23.755 126.382 24.805ZM124.408 24.406C124.408 23.678 124.247 23.055 123.925 22.537C123.603 22.005 123.162 21.606 122.602 21.34C122.056 21.06 121.447 20.92 120.775 20.92C119.809 20.92 118.983 21.228 118.297 21.844C117.625 22.46 117.24 23.314 117.142 24.406H124.408ZM128.19 25.204C128.19 24.028 128.428 22.999 128.904 22.117C129.38 21.221 130.031 20.528 130.857 20.038C131.697 19.548 132.635 19.303 133.671 19.303C134.567 19.303 135.4 19.513 136.17 19.933C136.94 20.339 137.528 20.878 137.934 21.55V15.46H139.866V31H137.934V28.837C137.556 29.523 136.996 30.09 136.254 30.538C135.512 30.972 134.644 31.189 133.65 31.189C132.628 31.189 131.697 30.937 130.857 30.433C130.031 29.929 129.38 29.222 128.904 28.312C128.428 27.402 128.19 26.366 128.19 25.204ZM137.934 25.225C137.934 24.357 137.759 23.601 137.409 22.957C137.059 22.313 136.583 21.823 135.981 21.487C135.393 21.137 134.742 20.962 134.028 20.962C133.314 20.962 132.663 21.13 132.075 21.466C131.487 21.802 131.018 22.292 130.668 22.936C130.318 23.58 130.143 24.336 130.143 25.204C130.143 26.086 130.318 26.856 130.668 27.514C131.018 28.158 131.487 28.655 132.075 29.005C132.663 29.341 133.314 29.509 134.028 29.509C134.742 29.509 135.393 29.341 135.981 29.005C136.583 28.655 137.059 28.158 137.409 27.514C137.759 26.856 137.934 26.093 137.934 25.225ZM151.172 16.363L150.941 26.863H149.345L149.114 16.363H151.172ZM150.227 31.126C149.863 31.126 149.555 31 149.303 30.748C149.051 30.496 148.925 30.188 148.925 29.824C148.925 29.46 149.051 29.152 149.303 28.9C149.555 28.648 149.863 28.522 150.227 28.522C150.577 28.522 150.871 28.648 151.109 28.9C151.361 29.152 151.487 29.46 151.487 29.824C151.487 30.188 151.361 30.496 151.109 30.748C150.871 31 150.577 31.126 150.227 31.126Z" fill="black"/>
</svg>
