<svg width="605" height="438" viewBox="0 0 605 438" fill="none" xmlns="http://www.w3.org/2000/svg">
<path d="M385.82 200.111C386.934 197.012 385.554 191.012 384.943 187.809C383.939 182.515 377.574 158.151 375.82 151.296C374.344 145.536 373.4 141.737 368.935 141.085C362.982 140.204 350.15 143.056 341.964 145.016C338.019 145.964 329.374 147.206 328.285 150.951C327.075 155.063 330.771 170.251 332.459 175.862C334.879 183.823 336.658 191.636 339.048 199.58C340.258 203.637 340.687 207.568 345.987 208.121L385.82 200.111Z" fill="#F7B13C" stroke="#F7B13C" stroke-width="4" stroke-linecap="round" stroke-linejoin="round"/>
<path d="M292.935 111.142L292.705 112.851C297.255 111.832 303.129 112.413 302.464 117.871C301.901 122.503 296.311 122.41 292.276 121.271C292.124 126.018 292.112 130.765 292.149 135.506" stroke="#3A4854" stroke-width="4" stroke-linecap="round" stroke-linejoin="round"/>
<path d="M262.388 104.529C262.648 97.7069 262.945 90.4963 264.373 84.0796" stroke="#3A4854" stroke-width="4" stroke-linecap="round" stroke-linejoin="round"/>
<path d="M261.59 136.875C261.59 136.875 261.644 132.889 261.729 127.94" stroke="#3A4854" stroke-width="4" stroke-linecap="round" stroke-linejoin="round"/>
<path d="M281.289 100.072V98.0353" stroke="#3A4854" stroke-width="4" stroke-linecap="round" stroke-linejoin="round"/>
<path d="M296.389 109.111C297.267 107.392 297.962 101.884 298.374 99.0591C298.888 95.5989 298.785 91.8924 298.979 88.4212C299.172 84.9501 300.243 76.0587 294.139 78.5662C294.036 72.9927 279.945 73.907 276.321 73.688C272.903 73.4799 268.874 72.9105 265.468 73.4799C263.489 73.8084 259.297 75.6699 262.872 77.3891C260.579 78.3089 260.452 80.7672 261.729 82.4316C264.119 85.618 270.362 84.1288 272.988 82.6779C270.725 86.1545 274.428 88.8428 278.161 88.7004C281.246 88.5854 283.829 86.9868 286.322 85.5906C286.322 86.9977 286.322 88.476 287.157 89.7243C287.822 90.6933 289.135 91.1149 289.529 92.0238C290.654 94.6627 289.783 99.4479 290.097 102.339C290.357 104.726 290.273 106.138 291.815 108.148C292.82 109.401 295.506 110.836 296.389 109.111Z" stroke="#3A4854" stroke-width="4" stroke-linecap="round" stroke-linejoin="round"/>
<path d="M260.712 136.798C262.751 136.941 274.857 142.224 274.857 142.224C274.857 142.224 291.44 137.904 292.717 135.501C292.196 138.638 288.857 142.772 286.993 145.553C285.328 148.182 283.445 150.693 281.361 153.065C280.502 150.743 278.3 148.214 276.957 146.111C275.946 144.524 274.845 142.377 274.845 142.377C274.845 142.377 267.016 149.884 265.643 150.732C264.21 147.959 262.934 145.121 261.819 142.23C261.122 140.487 260.748 138.652 260.712 136.798V136.798Z" stroke="#3A4854" stroke-width="4" stroke-linecap="round" stroke-linejoin="round"/>
<path d="M291.574 154.395C288.041 159.618 277.604 160.073 272.002 159.547C266.261 158.999 262.975 156.333 259.297 152.846" stroke="#3A4854" stroke-width="4" stroke-linecap="round" stroke-linejoin="round"/>
<path d="M274.144 146.363C273.599 150.431 273.484 159.563 273.484 159.563" stroke="#3A4854" stroke-width="4" stroke-linecap="round" stroke-linejoin="round"/>
<path d="M269.57 154.641C269.588 154.362 269.677 154.091 269.83 153.847" stroke="#3A4854" stroke-width="4" stroke-linecap="round" stroke-linejoin="round"/>
<path d="M228.423 167.31C227.262 169.785 226.965 172.452 226.294 175.019C224.757 180.839 224.594 187.064 223.614 192.961C218.913 221.19 217.195 249.764 214.297 278.157C213.946 281.59 213.353 290.46 213.087 294.221C213.05 294.74 213.193 295.257 213.496 295.699C213.798 296.142 214.245 296.488 214.775 296.69C216.271 297.263 217.815 297.729 219.391 298.086C223.74 299.029 228.164 299.658 232.622 299.97C238.291 300.468 243.766 300.944 250.167 301.065C251.861 274.308 252.908 247.601 255.007 220.845C257.209 192.95 259.242 165 259.242 137.045C253.954 137.045 252.097 138.003 249.447 143.938C247.493 148.318 246.186 153.705 243.567 157.658C244.444 159.01 251.522 161.994 252.363 162.843C246.229 162.186 243.651 164.217 243.833 167.918C244.069 172.846 245.218 178.677 245.763 183.566C246.501 190.136 247.65 197.149 248.854 203.675C250.542 212.846 254.154 232.77 254.154 232.77" stroke="#3A4854" stroke-width="4" stroke-linecap="round" stroke-linejoin="round"/>
<path d="M252.14 139.399C247.914 139.612 243.736 140.322 239.713 141.512C235.92 142.564 233.01 144.584 231.201 148.685C225.338 161.94 219.016 169.391 215.912 183.604C215.664 184.754 213.541 188.094 216.457 192.085C218.175 194.428 219.04 191.11 219.082 189.802C219.155 187.535 218.193 184.803 215.779 183.686C212.754 182.29 210.836 187.771 209.796 189.807C211.199 187.497 213.946 183.965 214.085 181.244C214.388 175.222 211.75 169.999 210.425 164.272C208.344 155.266 205.99 147.606 203.818 138.649C203.818 138.649 191.168 143.33 188.99 144.326C185.202 146.051 172.05 152.282 170.84 153.086C178.608 174.379 186.001 195.189 197.042 215.315C199.148 219.148 206.22 225.68 211.284 227.103C212.867 227.455 214.494 227.624 216.124 227.607C217.207 227.557 219.149 227.273 218.417 226.807" stroke="#3A4854" stroke-width="4" stroke-linecap="round" stroke-linejoin="round"/>
<path d="M243.991 175.446C241.94 175.293 232.169 175.802 232.169 175.802C232.169 175.802 230.608 185.969 230.426 188.658C230.251 191.192 229.513 193.853 229.61 196.355C235.273 195.972 241.389 196.087 246.955 196.098" stroke="#3A4854" stroke-width="4" stroke-linecap="round" stroke-linejoin="round"/>
<path d="M243.567 169.243C240.651 169.041 237.698 169.517 234.71 169.501" stroke="#3A4854" stroke-width="4" stroke-linecap="round" stroke-linejoin="round"/>
<path d="M239.918 174.932C239.918 173.508 240.239 169.073 240.523 168.362" stroke="#3A4854" stroke-width="4" stroke-linecap="round" stroke-linejoin="round"/>
<path d="M243.785 195.485C243.18 193.163 241.97 190.278 239.435 190.273C235.95 190.273 233.518 195.408 233.469 195.83" stroke="#3A4854" stroke-width="4" stroke-linecap="round" stroke-linejoin="round"/>
<path d="M240.36 189.605C243.785 188.449 244.414 184.409 240.5 183.259C236.355 182.038 235.054 189.074 239.501 189.282" stroke="#3A4854" stroke-width="4" stroke-linecap="round" stroke-linejoin="round"/>
<path d="M239.58 234.544C232.677 235.863 225.665 239.471 219.863 243.079" stroke="#3A4854" stroke-width="4" stroke-linecap="round" stroke-linejoin="round"/>
<path d="M236.712 240.008C232.674 241.66 228.759 243.55 224.993 245.663" stroke="#3A4854" stroke-width="4" stroke-linecap="round" stroke-linejoin="round"/>
<path d="M297.835 234.33C297.835 234.33 305.7 238.502 309.185 240.517C311.605 241.929 314.46 243.254 316.614 245.012" stroke="#3A4854" stroke-width="4" stroke-linecap="round" stroke-linejoin="round"/>
<path d="M298.718 241.01C298.718 241.01 306.063 244.19 309.003 246.183" stroke="#3A4854" stroke-width="4" stroke-linecap="round" stroke-linejoin="round"/>
<path d="M313.033 168.323C313.184 171.307 313.698 174.401 314.14 177.374C316.354 192.413 318.375 207.212 319.906 222.34C321.188 234.932 321.473 247.667 322.483 260.325C323.136 268.439 323.82 276.586 323.36 284.716C323.106 289.096 323.705 294.172 322.725 298.404C319.645 300.594 314.37 301.689 310.395 302.039C301.786 302.845 293.124 303.089 284.477 302.767C284.737 299.395 284.186 295.168 283.872 291.713C283.17 284.131 283.321 276.581 282.976 268.932C282.686 262.362 284.011 256.011 284.138 249.452C284.283 241.995 284.846 234.33 285.56 226.824C286.383 218.442 287.096 210.054 287.242 201.639C287.332 196.487 288.845 178.463 289.268 174.472C290.013 167.508 293.08 142.169 293.872 136.776C293.872 136.776 295.893 136.837 297.799 136.919C298.548 136.953 299.269 137.185 299.875 137.584C300.481 137.984 300.945 138.535 301.211 139.169C302.978 143.368 305.591 146.971 306.051 151.559C306.414 155.063 301.078 158.55 298.664 161.283C301.084 159.492 305.319 157.089 306.1 161.677C306.88 166.265 302.203 177.664 300.304 182.914C296.256 194.111 286.304 226.714 285.536 229.66" stroke="#3A4854" stroke-width="4" stroke-linecap="round" stroke-linejoin="round"/>
<path d="M301.38 139.185C309.85 140.773 317.346 145.465 321.091 150.075" stroke="#3A4854" stroke-width="4" stroke-linecap="round" stroke-linejoin="round"/>
<path d="M320.251 226.013C321.551 228.253 326.694 229.786 329.289 229.643C332.453 229.468 336.961 227.453 338.395 223.895" stroke="#3A4854" stroke-width="4" stroke-linecap="round" stroke-linejoin="round"/>
<path d="M201.592 138.578C201.592 138.578 200.067 131.871 198.791 128.816C193.872 129.068 186.515 131.652 182.123 133.563C178.608 135.09 173.653 137.598 170.271 139.185C171.245 141.846 174.373 151.263 174.373 151.263" stroke="#3A4854" stroke-width="4" stroke-linecap="round" stroke-linejoin="round"/>
<path d="M196.377 128.777C195.164 122.741 194.408 116.637 194.114 110.507C193.89 103.105 195.451 95.5059 195.881 88.1037C196.044 85.3005 196.631 81.8239 193.66 80.384C190.69 78.944 188.125 80.0883 186.624 82.574C185.19 84.9392 180.756 95.8563 180.756 95.8563" stroke="#3A4854" stroke-width="4" stroke-linecap="round" stroke-linejoin="round"/>
<path d="M178.771 116.262C181.088 116.262 185.487 112.692 181.427 109.785C186.34 109.062 185.934 102.864 182.032 102.842C183.484 101.988 183.539 99.0975 182.032 97.3181C178.935 93.6608 163.713 90.436 160.464 94.701C159.823 95.6154 158.994 97.5973 159.466 98.758C156.066 99.9735 156.066 102.492 157.493 104.666C153.664 106.543 155.999 111.296 159.048 112.331C157.493 113.617 159.393 117.258 162.466 118.572C168.111 120.997 178.075 121.359 178.771 116.262Z" stroke="#3A4854" stroke-width="4" stroke-linecap="round" stroke-linejoin="round"/>
<path d="M167.155 119.902C167.155 119.902 170.398 132.604 172.437 137.516" stroke="#3A4854" stroke-width="4" stroke-linecap="round" stroke-linejoin="round"/>
<path d="M182.038 102.842C179.618 103.018 171.801 102.125 169.43 101.632C166.683 101.085 161.565 100.264 159.472 98.7581" stroke="#3A4854" stroke-width="4" stroke-linecap="round" stroke-linejoin="round"/>
<path d="M181.427 109.785C176.442 110.124 170.701 108.958 165.903 107.836C162.986 107.051 160.169 105.989 157.5 104.666" stroke="#3A4854" stroke-width="4" stroke-linecap="round" stroke-linejoin="round"/>
<path d="M184.416 124.644C183.956 124.912 183.448 125.191 182.988 125.416" stroke="#3A4854" stroke-width="4" stroke-linecap="round" stroke-linejoin="round"/>
<path d="M177.591 161.622L176.164 161.879" stroke="#3A4854" stroke-width="4" stroke-linecap="round" stroke-linejoin="round"/>
<path d="M178.977 167.179L177.858 167.382" stroke="#3A4854" stroke-width="4" stroke-linecap="round" stroke-linejoin="round"/>
<path d="M181.022 172.484L179.879 172.742" stroke="#3A4854" stroke-width="4" stroke-linecap="round" stroke-linejoin="round"/>
<path d="M285.56 215.655C282.813 216.668 281.93 216.202 278.687 216.252C275.36 216.312 271.663 215.43 268.433 215.677C266.382 215.835 264.536 216.64 262.286 216.711C259.708 216.794 258.147 215.507 255.861 215.129" stroke="#3A4854" stroke-width="4" stroke-linecap="round" stroke-linejoin="round"/>
<path d="M267.857 239.46C267.531 244.267 267.482 249.901 267.252 254.686C266.889 261.36 267.029 268.144 267.343 274.829C267.997 288.856 267.343 303.156 267.343 317.254C267.343 327.186 267.821 337.118 268.033 347.049C268.226 356.559 271.663 390.68 271.663 390.68C275.45 391.101 290.811 391.528 295.022 391.528C300.074 391.528 308.731 390.981 313.172 390.981C313.172 390.981 312.204 371.364 312.216 364.903C312.216 352.212 311.06 343.71 311.06 331.035V309.726C311.06 307.356 310.776 302.872 310.776 302.872" stroke="#3A4854" stroke-width="4" stroke-linecap="round" stroke-linejoin="round"/>
<path d="M222.422 298.935C221.091 302.707 221.496 308.188 222.144 312.075C223.021 317.386 227.589 320.189 231.824 323.737C240.87 331.26 250.527 338.16 260.712 344.377C262.068 345.221 268.057 349.234 268.057 349.234" stroke="#3A4854" stroke-width="4" stroke-linecap="round" stroke-linejoin="round"/>
<path d="M229.18 312.584C230.457 314.079 231.049 315.869 232.036 317.512" stroke="#3A4854" stroke-width="4" stroke-linecap="round" stroke-linejoin="round"/>
<path d="M311.575 334.884L326.639 346.129C326.639 346.129 323.614 354.977 322.797 358.109C320.837 365.303 317.443 370.488 315.604 377.72L312.506 376.226" stroke="#3A4854" stroke-width="4" stroke-linecap="round" stroke-linejoin="round"/>
<path d="M325.865 348.588C329.846 351.747 335.545 354.287 339.998 357.101C341.45 358.016 345.582 360.709 345.582 360.709" stroke="#3A4854" stroke-width="4" stroke-linecap="round" stroke-linejoin="round"/>
<path d="M317.316 375.711C319.373 376.806 338.364 387.318 338.364 387.318" stroke="#3A4854" stroke-width="4" stroke-linecap="round" stroke-linejoin="round"/>
<path d="M347.585 359.708L354.088 362.007C354.088 362.007 347.512 390.477 346.375 394.019C345.195 397.704 344.771 403.951 340.325 405.134C339.175 405.44 327.372 405.106 327.347 404.405C327.263 402.445 326.137 400.272 328.303 399.264C330.3 398.334 333.694 399.264 335.842 398.947C335.842 398.947 339.06 385.495 341.287 379.346C343.513 373.198 344.487 366.48 346.732 360.271C346.423 360.102 346.169 360.074 347.585 359.708Z" fill="#3A4854" stroke="#3A4854" stroke-width="4" stroke-linecap="round" stroke-linejoin="round"/>
<path d="M337.299 388.96C334.42 388.183 329.525 385.785 326.712 386.847C324.322 387.75 326.306 389.656 328.079 390.68C330.414 392.065 333.778 392.322 336.483 392.322C333.99 392.026 327.801 391.348 326.978 394.627C325.768 399.467 335.091 393.423 336.483 392.322" stroke="#3A4854" stroke-width="4" stroke-linecap="round" stroke-linejoin="round"/>
<path d="M262.933 405.665C262.884 404.614 262.927 403.561 263.06 402.517C264.754 399.9 269.279 401.339 271.929 401.493C279.296 401.871 286.681 401.871 294.048 401.493C300.098 401.23 305.712 400.513 311.823 400.869C312.125 406.688 310.141 405.67 305.361 405.665H262.933Z" fill="#3A4854" stroke="#3A4854" stroke-width="4" stroke-linecap="round" stroke-linejoin="round"/>
<path d="M310.722 399.473C311.018 398.733 310.51 392.465 310.401 391.671" stroke="#3A4854" stroke-width="4" stroke-linecap="round" stroke-linejoin="round"/>
<path d="M276.999 400.507C276.999 399.472 276.394 392.963 276.394 391.928" stroke="#3A4854" stroke-width="4" stroke-linecap="round" stroke-linejoin="round"/>
<path d="M275.275 400.896C272.903 397.332 270.925 389.606 265.504 389.201C263.689 392.229 266.757 396.237 269.854 397.512C268.293 395.465 263.369 393.433 260.779 393.97C259.472 398.678 271.379 401.372 275.275 400.896Z" stroke="#3A4854" stroke-width="4" stroke-linecap="round" stroke-linejoin="round"/>
<path d="M380.333 143.357C382.995 144.135 388.059 146.538 390.999 149.418C395.18 153.503 397.781 158.627 399.705 163.828C403.305 173.547 403.214 182.208 399.536 191.91C398.931 193.514 396.553 198.912 394.091 197.719" stroke="#3A4854" stroke-width="4" stroke-linecap="round" stroke-linejoin="round"/>
<path d="M398.011 177.981C397.703 180.899 396.196 190.355 393.389 191.461" stroke="#3A4854" stroke-width="4" stroke-linecap="round" stroke-linejoin="round"/>
<path d="M394.962 167.967C394.75 171.165 394.581 182.055 391.332 183.577" stroke="#3A4854" stroke-width="4" stroke-linecap="round" stroke-linejoin="round"/>
<path d="M384.55 159.481C386.619 161.217 386.444 163.768 385.675 166.232" stroke="#3A4854" stroke-width="4" stroke-linecap="round" stroke-linejoin="round"/>
<path d="M427.505 338.048L379.54 142.843C378.958 140.465 377.437 138.362 375.263 136.928C373.088 135.493 370.41 134.826 367.731 135.052C360.99 135.671 354.289 136.61 347.657 137.866C341.146 139.254 334.722 140.956 328.412 142.963C325.88 143.787 323.767 145.418 322.468 147.551C321.17 149.683 320.775 152.171 321.358 154.548L369.437 350.23" stroke="#3A4854" stroke-width="4" stroke-linecap="round" stroke-linejoin="round"/>
<path d="M361.233 135.276C359.866 132.128 358.705 128.268 358.705 128.268L333.234 133.502C333.234 133.502 333.47 137.926 335.128 140.773" stroke="#3A4854" stroke-width="4" stroke-linecap="round" stroke-linejoin="round"/>
<path d="M354.875 127.721C353.961 124.025 351.813 116.431 351.813 116.431C346.163 117.406 339.81 118.364 334.184 119.788C335.024 124.326 336.15 127.748 337.275 132.145" stroke="#3A4854" stroke-width="4" stroke-linecap="round" stroke-linejoin="round"/>
<path d="M342.636 117.176L330.475 67.6929" stroke="#3A4854" stroke-width="4" stroke-linecap="round" stroke-linejoin="round"/>
<path d="M393.873 356.652L402.936 393.554" stroke="#3A4854" stroke-width="4" stroke-linecap="round" stroke-linejoin="round"/>
<path d="M408.097 341.952L375.626 209.233L358.499 212.676L391.132 345.5" stroke="#3A4854" stroke-width="4" stroke-linecap="round" stroke-linejoin="round"/>
<path d="M419.761 389.628L410.825 353.116" stroke="#3A4854" stroke-width="4" stroke-linecap="round" stroke-linejoin="round"/>
<path d="M440.44 346.14C438.341 347.526 435.528 347.838 432.66 348.434C420.493 350.975 408.375 353.712 396.19 356.176C387.835 357.868 379.734 359.642 371.349 361.104C364.73 362.275 357.743 363.157 357.198 357.72C356.666 352.382 367.332 350.696 373.085 349.42C384.998 346.792 397.11 344.137 409.095 341.755C415.189 340.529 421.282 339.302 427.372 338.076C430.585 337.419 436.005 336.088 439.23 336.57C443.205 337.161 444.24 340.342 442.939 343.189C442.433 344.368 441.566 345.392 440.44 346.14Z" stroke="#3A4854" stroke-width="4" stroke-linecap="round" stroke-linejoin="round"/>
<path d="M444.675 392.092C442.896 393.1 440.573 393.395 438.195 393.888C428.104 395.979 418.043 398.208 407.945 400.25C401.018 401.646 394.163 403.059 387.327 404.734C381.936 406.053 374.761 407.285 374.386 401.772C374.017 396.363 384.374 397.157 389.196 396.33C399.185 394.627 409.161 392.015 419.071 390.017C424.125 388.999 429.177 387.982 434.227 386.968C436.895 386.42 441.916 384.964 444.548 385.199C447.797 385.484 448.008 388.019 446.841 390.001C446.339 390.861 445.591 391.583 444.675 392.092V392.092Z" stroke="#3A4854" stroke-width="4" stroke-linecap="round" stroke-linejoin="round"/>
<path d="M389.272 201.434L389.905 204.01C390.165 205.07 389.427 206.12 388.256 206.356L343.615 215.341C342.444 215.577 341.284 214.909 341.024 213.849L340.39 211.273C340.13 210.214 340.868 209.164 342.039 208.928L386.68 199.942C387.851 199.707 389.011 200.375 389.272 201.434Z" stroke="#3A4854" stroke-width="4" stroke-linecap="round" stroke-linejoin="round"/>
<path d="M401.877 355.01C403.608 360.233 411.92 391.534 411.92 391.534" stroke="#3A4854" stroke-width="4" stroke-linecap="round" stroke-linejoin="round"/>
<path d="M366.86 212.227C373.599 236.974 379.734 265.335 385.832 290.142C388.488 300.95 394.907 328.089 398.9 343.852" stroke="#3A4854" stroke-width="4" stroke-linecap="round" stroke-linejoin="round"/>
<path d="M376.63 184.601L375.832 187.491" stroke="#D65A41" stroke-width="4" stroke-linecap="round" stroke-linejoin="round"/>
<path d="M360.707 172.019L358.469 171.105" stroke="#D65A41" stroke-width="4" stroke-linecap="round" stroke-linejoin="round"/>
<path d="M368.59 162.197L368.911 163.494" stroke="#D65A41" stroke-width="4" stroke-linecap="round" stroke-linejoin="round"/>
<path d="M369.068 149.331L368.433 150.825" stroke="#D65A41" stroke-width="4" stroke-linecap="round" stroke-linejoin="round"/>
<path d="M348.438 157.357L347.748 156.585" stroke="#D65A41" stroke-width="4" stroke-linecap="round" stroke-linejoin="round"/>
<path d="M340.155 148.805L338.982 148.126" stroke="#D65A41" stroke-width="4" stroke-linecap="round" stroke-linejoin="round"/>
<path d="M337.759 155.282L336.162 156.968" stroke="#D65A41" stroke-width="4" stroke-linecap="round" stroke-linejoin="round"/>
<path d="M348.413 166.254L347.772 167.749" stroke="#D65A41" stroke-width="4" stroke-linecap="round" stroke-linejoin="round"/>
<path d="M350.331 182.903L348.093 181.989" stroke="#D65A41" stroke-width="4" stroke-linecap="round" stroke-linejoin="round"/>
<path d="M336.96 171.559L334.94 171.51" stroke="#D65A41" stroke-width="4" stroke-linecap="round" stroke-linejoin="round"/>
<path d="M340.627 177.018L340.095 178.945" stroke="#D65A41" stroke-width="4" stroke-linecap="round" stroke-linejoin="round"/>
<path d="M345.219 200.122L344.475 201.179" stroke="#D65A41" stroke-width="4" stroke-linecap="round" stroke-linejoin="round"/>
<path d="M343.144 193.711L341.014 193.229" stroke="#D65A41" stroke-width="4" stroke-linecap="round" stroke-linejoin="round"/>
<path d="M354.693 192.014L353.417 190.902" stroke="#D65A41" stroke-width="4" stroke-linecap="round" stroke-linejoin="round"/>
<path d="M355.165 201.223L356.635 201.173" stroke="#D65A41" stroke-width="4" stroke-linecap="round" stroke-linejoin="round"/>
<path d="M365.402 186.046L363.805 187.732" stroke="#D65A41" stroke-width="4" stroke-linecap="round" stroke-linejoin="round"/>
<path d="M360.259 178.781L358.922 179.109" stroke="#D65A41" stroke-width="4" stroke-linecap="round" stroke-linejoin="round"/>
<path d="M359.219 162.728L359.963 161.666" stroke="#D65A41" stroke-width="4" stroke-linecap="round" stroke-linejoin="round"/>
<path d="M375.463 175.83L377.006 175.978" stroke="#D65A41" stroke-width="4" stroke-linecap="round" stroke-linejoin="round"/>
<path d="M377.283 169.758L377.338 167.929" stroke="#D65A41" stroke-width="4" stroke-linecap="round" stroke-linejoin="round"/>
<path d="M383.237 193.711L381.108 193.229" stroke="#D65A41" stroke-width="4" stroke-linecap="round" stroke-linejoin="round"/>
<path d="M368.935 197.516L367.925 195.441" stroke="#D65A41" stroke-width="4" stroke-linecap="round" stroke-linejoin="round"/>
<path d="M355.582 152.282L356.224 150.787" stroke="#D65A41" stroke-width="4" stroke-linecap="round" stroke-linejoin="round"/>
<path d="M361.239 144.562L359.588 143.982" stroke="#D65A41" stroke-width="4" stroke-linecap="round" stroke-linejoin="round"/>
<path d="M333.143 55.0621C333.21 54.1806 335.418 51.361 336.168 50.8354" stroke="#D65A41" stroke-width="4" stroke-linecap="round" stroke-linejoin="round"/>
<path d="M323.875 54.2846C323.312 52.445 321.521 50.8408 320.069 49.4666" stroke="#D65A41" stroke-width="4" stroke-linecap="round" stroke-linejoin="round"/>
<path d="M316.076 60.6356C314.175 59.6573 311.965 59.287 309.802 59.5844" stroke="#D65A41" stroke-width="4" stroke-linecap="round" stroke-linejoin="round"/>
<path d="M259.412 106.916C261.402 103.056 267.428 104.118 271.838 104.211C277.038 104.356 282.171 105.312 287.012 107.036C285.1 109.599 285.197 115.687 285.36 118.873C285.416 121.064 285.722 123.244 286.274 125.378L286.455 125.859C281.966 127.403 277.598 128.756 272.764 128.936C269.672 129.051 265.274 129.292 262.328 128.203C260.162 127.398 258.698 126.089 258.286 123.998C257.215 118.923 256.937 111.717 259.412 106.916Z" fill="#98D1D2" stroke="#98D1D2" stroke-width="4" stroke-linecap="round" stroke-linejoin="round"/>
<path d="M284.779 112.352C283.001 111.973 281.199 111.693 279.383 111.515" stroke="#3A4854" stroke-width="4" stroke-linecap="round" stroke-linejoin="round"/>
<path d="M285.342 120.45C284.483 120.653 280.75 121.775 280.03 122.092" stroke="#3A4854" stroke-width="4" stroke-linecap="round" stroke-linejoin="round"/>
<path d="M286.455 125.859C287.974 125.421 293.963 123.319 293.963 123.319" stroke="#98D1D2" stroke-width="4" stroke-linecap="round" stroke-linejoin="round"/>
<path d="M294.145 110.644C294.145 110.644 290.164 108.137 287.012 107.031" stroke="#98D1D2" stroke-width="4" stroke-linecap="round" stroke-linejoin="round"/>
<path d="M267.573 99.3001V97.2579" stroke="#3A4854" stroke-width="4" stroke-linecap="round" stroke-linejoin="round"/>
<path d="M244.353 179.503C242.968 179.503 237.311 179.761 235.95 179.64" stroke="#3A4854" stroke-width="4" stroke-linecap="round" stroke-linejoin="round"/>
<path d="M178.771 116.262C176.351 116.431 170.519 115.55 168.148 115.063C165.401 114.515 161.263 113.667 159.073 112.325" stroke="#3A4854" stroke-width="4" stroke-linecap="round" stroke-linejoin="round"/>
</svg>
