<svg width="51" height="52" viewBox="0 0 51 52" fill="none" xmlns="http://www.w3.org/2000/svg">
<g clip-path="url(#clip0)">
<rect width="49.8255" height="50.4348" transform="translate(0.707031 0.756592)" fill="#F7B13C"/>
<path d="M36.0591 0.756592H15.1806C7.19982 0.756592 0.707031 7.32878 0.707031 15.4071V36.5409C0.707031 44.6192 7.19982 51.1914 15.1806 51.1914H36.059C44.0397 51.1914 50.5325 44.6192 50.5325 36.541V15.4071C50.5325 7.32878 44.0397 0.756592 36.0591 0.756592ZM46.6399 36.5409C46.6399 42.4466 41.8933 47.2512 36.0591 47.2512H15.1806C9.3462 47.2512 4.59965 42.4466 4.59965 36.541V15.4071C4.59965 9.50141 9.3462 4.69681 15.1806 4.69681H36.059C41.8933 4.69681 46.6399 9.50141 46.6399 15.4071V36.5409Z" fill="white"/>
<path d="M25.62 12.3801C18.2148 12.3801 12.1904 18.4782 12.1904 25.9739C12.1904 33.4696 18.2148 39.5676 25.62 39.5676C33.0251 39.5676 39.0495 33.4696 39.0495 25.9739C39.0495 18.4782 33.0251 12.3801 25.62 12.3801ZM25.62 35.6274C20.3613 35.6274 16.083 31.2968 16.083 25.9739C16.083 20.6509 20.3613 16.3203 25.62 16.3203C30.8786 16.3203 35.1569 20.6509 35.1569 25.9739C35.1569 31.2968 30.8786 35.6274 25.62 35.6274Z" fill="white"/>
<path d="M39.2442 14.1534C40.3191 14.1534 41.1905 13.2713 41.1905 12.1832C41.1905 11.0952 40.3191 10.2131 39.2442 10.2131C38.1692 10.2131 37.2979 11.0952 37.2979 12.1832C37.2979 13.2713 38.1692 14.1534 39.2442 14.1534Z" fill="white"/>
</g>
<defs>
<clipPath id="clip0">
<rect width="49.8255" height="50.4348" fill="white" transform="translate(0.707031 0.756592)"/>
</clipPath>
</defs>
</svg>
