<svg id="visual" viewBox="0 0 1200 1024" width="1200" height="1024" xmlns="http://www.w3.org/2000/svg" xmlns:xlink="http://www.w3.org/1999/xlink" version="1.1"><rect x="0" y="0" width="1200" height="1024" fill="#FFF8D9"></rect><defs><linearGradient id="grad1_0" x1="14.7%" y1="0%" x2="100%" y2="100%"><stop offset="26.5625%" stop-color="#f78b3c" stop-opacity="1"></stop><stop offset="73.4375%" stop-color="#f78b3c" stop-opacity="1"></stop></linearGradient></defs><defs><linearGradient id="grad1_1" x1="14.7%" y1="0%" x2="100%" y2="100%"><stop offset="26.5625%" stop-color="#f78b3c" stop-opacity="1"></stop><stop offset="73.4375%" stop-color="#f6c781" stop-opacity="1"></stop></linearGradient></defs><defs><linearGradient id="grad1_2" x1="14.7%" y1="0%" x2="100%" y2="100%"><stop offset="26.5625%" stop-color="#fff8d9" stop-opacity="1"></stop><stop offset="73.4375%" stop-color="#f6c781" stop-opacity="1"></stop></linearGradient></defs><defs><linearGradient id="grad2_0" x1="0%" y1="0%" x2="85.3%" y2="100%"><stop offset="26.5625%" stop-color="#f78b3c" stop-opacity="1"></stop><stop offset="73.4375%" stop-color="#f78b3c" stop-opacity="1"></stop></linearGradient></defs><defs><linearGradient id="grad2_1" x1="0%" y1="0%" x2="85.3%" y2="100%"><stop offset="26.5625%" stop-color="#f6c781" stop-opacity="1"></stop><stop offset="73.4375%" stop-color="#f78b3c" stop-opacity="1"></stop></linearGradient></defs><defs><linearGradient id="grad2_2" x1="0%" y1="0%" x2="85.3%" y2="100%"><stop offset="26.5625%" stop-color="#f6c781" stop-opacity="1"></stop><stop offset="73.4375%" stop-color="#fff8d9" stop-opacity="1"></stop></linearGradient></defs><g transform="translate(1200, 0)"><path d="M0 749.3C-98.9 727.6 -197.7 705.9 -272.1 656.9C-346.5 607.9 -396.4 531.5 -470.2 470.2C-544.1 408.9 -641.8 362.6 -692.3 286.8C-742.8 210.9 -746.1 105.4 -749.3 0L0 0Z" fill="#f8e1ac"></path><path d="M0 499.5C-65.9 485.1 -131.8 470.6 -181.4 437.9C-231 405.2 -264.3 354.4 -313.5 313.5C-362.7 272.6 -427.9 241.7 -461.5 191.2C-495.2 140.6 -497.4 70.3 -499.5 0L0 0Z" fill="#f6ab5b"></path><path d="M0 249.8C-33 242.5 -65.9 235.3 -90.7 219C-115.5 202.6 -132.1 177.2 -156.7 156.7C-181.4 136.3 -213.9 120.9 -230.8 95.6C-247.6 70.3 -248.7 35.1 -249.8 0L0 0Z" fill="#f78b3c"></path></g><g transform="translate(0, 1024)"><path d="M0 -749.3C104 -744.5 207.9 -739.7 286.8 -692.3C365.6 -644.9 419.3 -555 481.5 -481.5C543.8 -408.1 614.5 -351.1 660.6 -273.6C706.6 -196.1 728 -98.1 749.3 0L0 0Z" fill="#f8e1ac"></path><path d="M0 -499.5C69.3 -496.3 138.6 -493.1 191.2 -461.5C243.7 -429.9 279.5 -370 321 -321C362.5 -272.1 409.7 -234.1 440.4 -182.4C471.1 -130.7 485.3 -65.4 499.5 0L0 0Z" fill="#f6ab5b"></path><path d="M0 -249.8C34.7 -248.2 69.3 -246.6 95.6 -230.8C121.9 -215 139.8 -185 160.5 -160.5C181.3 -136 204.8 -117 220.2 -91.2C235.5 -65.4 242.7 -32.7 249.8 0L0 0Z" fill="#f78b3c"></path></g></svg>