<svg width="51" height="52" viewBox="0 0 51 52" fill="none" xmlns="http://www.w3.org/2000/svg">
<g clip-path="url(#clip0)">
<path d="M50.2845 10.3361C48.4316 11.1588 46.4572 11.7041 44.3988 11.9689C46.5164 10.6891 48.1326 8.67802 48.8925 6.25399C46.9181 7.44552 44.7383 8.28715 42.4152 8.75682C40.5405 6.73628 37.8686 5.48486 34.9538 5.48486C29.2986 5.48486 24.7458 10.1312 24.7458 15.8271C24.7458 16.6467 24.8143 17.4348 24.9825 18.185C16.4903 17.7657 8.97603 13.6458 3.92808 7.36986C3.0468 8.91758 2.52986 10.6891 2.52986 12.5962C2.52986 16.177 4.3516 19.3513 7.06709 21.189C5.42596 21.1575 3.81598 20.6752 2.452 19.9155C2.452 19.947 2.452 19.988 2.452 20.029C2.452 25.0536 5.99273 29.227 10.6358 30.1885C9.80438 30.4186 8.89818 30.5289 7.95772 30.5289C7.30376 30.5289 6.64357 30.4911 6.02387 30.3524C7.34736 34.447 11.103 37.4574 15.5686 37.5551C12.0932 40.3069 7.68057 41.965 2.90355 41.965C2.06586 41.965 1.26242 41.9272 0.458984 41.8231C4.98376 44.7767 10.3462 46.4631 16.1291 46.4631C34.9258 46.4631 45.2023 30.7023 45.2023 17.0407C45.2023 16.5837 45.1867 16.1424 45.1649 15.7042C47.1922 14.2479 48.8956 12.4291 50.2845 10.3361Z" fill="white"/>
</g>
<defs>
<clipPath id="clip0">
<rect width="49.8255" height="50.4348" fill="white" transform="translate(0.458984 0.756592)"/>
</clipPath>
</defs>
</svg>
