<svg width="320" height="1440" viewBox="0 0 320 1440" fill="none" xmlns="http://www.w3.org/2000/svg">
<g clip-path="url(#clip0)">
<g clip-path="url(#clip1)">
<path d="M0 1440L42.7 1413.3C85 1386.7 171 1333 176 1280C181 1226.7 107 1173 96 1120C85 1066.7 139 1013 160 960C181 906.7 171 853 176 800C181 746.7 203 693 213.3 640C224 586.7 224 533 218.7 480C213 426.7 203 373 213.3 320C224 266.7 256 213 272 160C288 106.7 288 53 288 27V0H0V26.7C0 53.3 0 107 0 160C0 213.3 0 267 0 320C0 373.3 0 427 0 480C0 533.3 0 587 0 640C0 693.3 0 747 0 800C0 853.3 0 907 0 960C0 1013.3 0 1067 0 1120C0 1173.3 0 1227 0 1280C0 1333.3 0 1387 0 1413V1440Z" fill="#D65A41"/>
</g>
<g clip-path="url(#clip2)">
<path d="M160 1440L186.7 1380C213 1320 267 1200 266.7 1080C267 960 213 840 197.3 720C181 600 203 480 202.7 360C203 240 181 120 170.7 60L160 0H-6.10352e-05L-6.10352e-05 60C-6.10352e-05 120 -6.10352e-05 240 -6.10352e-05 360C-6.10352e-05 480 -6.10352e-05 600 -6.10352e-05 720C-6.10352e-05 840 -6.10352e-05 960 -6.10352e-05 1080C-6.10352e-05 1200 -6.10352e-05 1320 -6.10352e-05 1380V1440H160Z" fill="#F7833B"/>
</g>
<path d="M192 1440L160 1380C128 1320 64 1200 53.3 1080C43 960 85 840 122.7 720C160 600 192 480 176 360C160 240 96 120 64 60L32 0H0V60C0 120 0 240 0 360C0 480 0 600 0 720C0 840 0 960 0 1080C0 1200 0 1320 0 1380V1440H192Z" fill="#F7B13C"/>
</g>
<defs>
<clipPath id="clip0">
<rect width="1440" height="320" fill="white" transform="matrix(0 -1 -1 0 320 1440)"/>
</clipPath>
<clipPath id="clip1">
<rect width="1440" height="320" fill="white" transform="matrix(0 -1 -1 0 320 1440)"/>
</clipPath>
<clipPath id="clip2">
<rect width="1440" height="320" fill="white" transform="matrix(0 -1 -1 0 320 1440)"/>
</clipPath>
</defs>
</svg>
